<?xml version="1.0" encoding="utf-8"?>
<!-- Generator: Adobe Illustrator 27.2.0, SVG Export Plug-In . SVG Version: 6.00 Build 0)  -->
<svg version="1.1" id="Logo" xmlns="http://www.w3.org/2000/svg" xmlns:xlink="http://www.w3.org/1999/xlink" x="0px" y="0px"
	 viewBox="0 0 2048 789" style="enable-background:new 0 0 2048 789;" xml:space="preserve">
<style type="text/css">
	.st0{fill:#00AB4E;}
	.st1{display:none;}
	.st2{display:inline;fill:#1A1E54;}
	.st3{fill:#1A1E54;}
</style>
<path class="st0" d="M1855.5,345.3c-2.4-36.8-10.1-73.2-24.7-107.2c-1.4-3.3-2.9-6.7-4.5-10c-0.8-1.8-1.8-3.4-2.6-5.1v0
	c-19.2-38.5-45.3-69.1-74.1-93.3c-0.9-0.8-1.9-1.5-2.8-2.3c-3.9-3.2-7.8-6.3-11.7-9.3c-4.7-3.5-9.4-6.8-14.2-10.1
	c-0.3-0.2-0.6-0.4-0.9-0.6c-20.7-13.8-42-24.9-62.4-33.8c-20.4-8.9-39.9-15.5-57.1-20.4c-34.4-9.9-59.6-12.9-64.2-13.5l-2.9-10.9
	c-3.3-1.5-6.9-2.6-10.5-3.3c-3.6-0.8-7.3-1.2-10.8-1.4c-2-0.1-3.9-0.2-5.8-0.2c-1.6,0-3.1,0-4.6,0.1c-3.3,0.1-6.4,0.4-9.2,0.8
	c-1.8,0.2-3.5,0.5-4.9,0.7c-1.5,0.2-2.7,0.5-3.8,0.7c-1.1,0.2-1.9,0.4-2.5,0.5c-0.6,0.2-0.9,0.2-1,0.2l-2.9,8.8l-1,2.9
	c-0.1,0-0.5-0.1-1.3-0.1c-0.7-0.1-1.9-0.1-3.5-0.2c-1.6,0-3.6,0-6.1,0.2c-2.5,0.1-5.4,0.4-8.8,0.8c-6.4,0.8-14.4,2.1-24.3,4.4
	c-9.9,2.3-21.7,5.5-35.5,10.1c-6.9,2.3-14.3,4.9-22.3,7.8c-8,3-16.4,6.3-25.5,10.1c-9,3.8-18.7,7.9-28.8,12.6
	c-10,4.5-20.5,9.5-31.6,15h0c-0.1,0-0.1,0.1-0.2,0.1c0,0,0,0,0,0c-0.2,0.1-0.5,0.2-0.7,0.4c-7.5,3.8-15,8.2-21.1,11.9l0,0
	c0,0,0,0,0,0c-1.2,0.7-2.3,1.4-3.4,2.1c-0.1,0-0.1,0.1-0.2,0.1c-5.2,3.3-8.6,5.6-8.6,5.6l0,0l-10.7,7.1
	c-9.3,6.2-17.8,13.4-25.5,21.3c-7.7,7.9-14.7,16.6-20.9,25.9c-3.9,5.7-7.5,11.7-10.8,17.9c-3.4,6.2-6.5,12.5-9.3,19
	c-4.9,11.1-9.1,22.5-12.8,34.2c-5.5,17.7-9.7,35.9-12.9,53.8c-1.2,6.6-2.2,13.1-3.1,19.5c-0.6,4.4-1.2,8.8-1.7,13.1
	c-0.7,6.3-1.3,12.4-1.8,18.4l0,0c-0.1,1.1-0.2,2.2-0.3,3.4c-0.4,4.4-0.7,8.8-0.9,13.1c-0.1,1.9-0.2,3.8-0.3,5.7
	c-0.2,3.6-0.3,7.1-0.5,10.5c-0.1,1.6-0.1,3.3-0.2,4.9c-0.1,4.8-0.3,9.6-0.3,14.1l0,1.8c0,3.4,0,6.8,0,10c0.1,10.3,0.3,19.3,0.7,26.5
	c0.2,3.5,0.4,6.9,0.6,9.9c0,0.4,0,0.8,0.1,1.1c0.2,3,0.4,5.6,0.6,7.5c0,0.2,0,0.5,0.1,0.7c0.1,1.2,0.2,2.1,0.2,2.7v0L941.5,592.8
	c0,0,0,0,0,0l0,0l0,0l-28.1,18.9c-0.1,0.1-0.5,0.7-0.9,1.7c-0.2,0.3-0.3,0.7-0.5,1.2c-0.5,1.3-1.1,3-1.4,4.8
	c-0.1,0.4-0.1,0.8-0.2,1.2c0,0.4-0.1,0.9-0.1,1.3v1c0.1,1.7,0.4,3.4,1.1,5.1c0,0.1,0.1,0.2,0.1,0.3c0.7,1.4,1.6,2.8,2.9,4.1
	c1,0.9,2.1,1.8,3.5,2.6c0.4,0.2,0.9,0.5,1.5,0.8c2.1,1.1,5.7,2.7,10.5,4.8c4.8,2.1,10.8,4.7,17.8,7.7c4.3,1.8,8.9,3.8,13.9,5.9
	c15,6.3,32.7,13.7,51.2,21.4c10.4,4.4,21.1,8.8,31.8,13.2c5.4,2.2,10.7,4.5,16,6.7c24,10,46.8,19.7,64.8,27.5
	c3.4,1.5,6.7,2.9,9.8,4.3c6.2,2.7,11.5,5.1,15.8,7.1c7.1,3.3,11.4,5.5,11.7,6.3c0,0.1,0.3,0.4,0.8,0.7c0.5,0.3,1.1,0.6,1.9,1
	c2.5,1.1,6.6,2.8,12.2,4.6c2.1,0.7,4.4,1.4,6.9,2.2c8.7,2.6,19.8,5.5,32.8,8c6,1.2,12.5,2.3,19.3,3.3c4.1,0.6,8.3,1.2,12.7,1.7
	c8.6,1,17.7,1.8,27.1,2.3c8.9,0.5,18.2,0.7,27.8,0.6c7-0.1,14.1-0.4,21.4-0.8c7.9-0.5,15.9-1.2,24-2.2c12.7-1.6,25.8-3.8,39-6.8
	c0.2-0.1,0.4-0.1,0.7-0.2c0.2,0,0.3-0.1,0.5-0.1c8.3-1.9,16.7-4.1,25.2-6.7c5.1-1.6,10.3-3.2,15.5-5c6.2-2.2,12.3-4.5,18.6-7
	c7.8-3.2,15.6-6.7,23.4-10.5c12.7-6.2,25.4-13.3,38.1-21.3c1.4-0.9,2.8-1.8,4.2-2.7l26.5-17.3c-2.1,1.4-4.3,2.7-6.4,4.1
	c-3.2,2-6.4,3.8-9.6,5.6c6.1-3.5,12.2-7.2,18.3-11.1c28.1-18.4,56-41.7,82.6-70.9c26.7-29.3,52.3-64.6,75.9-106.9
	c0,0-0.1,0.1-0.1,0.1c0,0,0.1-0.1,0.1-0.1c0,0,0,0,0,0c0,0,0,0,0,0l-1.9,1.3c-3.5,1.9-11.1,5.3-20.7,12.5c-0.4,0.3-0.9,0.7-1.4,1.1
	c-1.2,0.9-2.4,1.8-3.6,2.8c-1.7,1.4-3.5,3-5.3,4.6c-6.5,6-14.1,13.6-22.7,21.9c-14.4,13.8-31.4,29.5-49.8,42.8
	c-29.6,21.3-59.4,43.4-98.2,61.2c-19.4,8.9-39.8,16.8-60.9,23.2c-10.6,3.2-21.3,6-32.3,8.3c-10.9,2.4-22,4.3-33.3,5.6
	c-1.8,0.2-3.7,0.4-5.5,0.6c-1.8,0.2-3.7,0.4-5.5,0.5c-1.9,0.2-3.7,0.3-5.5,0.4c-1.9,0.1-3.7,0.2-5.6,0.4h0
	c-6.7,0.4-13.4,0.5-20.2,0.5c-6.8-0.1-13.6-0.4-20.4-0.9c-6.8-0.5-13.7-1.3-20.6-2.3c-6.8-1-13.7-2.3-20.6-3.8c-1-0.2-4.1-0.7-9-1.6
	c-4.9-0.9-11.7-2.2-19.9-4c-8.2-1.7-17.9-3.9-28.8-6.5c-10.8-2.6-22.8-5.7-35.5-9.2c-12.7-3.5-26.3-7.5-40.3-12.1
	c-14-4.5-28.4-9.5-42.9-15.1c-21.8-8.3-43.8-17.8-64.9-28.7c-7-3.6-14-7.3-20.8-11.2c-0.6-0.1-3.6-0.3-4.6-2.7
	c-0.5-1.2-0.5-2.8,0.3-5.2c0.9-2.7,3-6.2,6.9-11c0.9-1.1,1.9-2.3,3-3.6c1.1-1.3,2.3-2.6,3.7-4c2.7-2.8,5.8-6,9.5-9.4
	c7.4-6.9,16.9-15.2,29.2-25c23.9-19.3,44.7-42.7,92.8-76.1c0,0,0,0,0,0c0,0,0,0,0,0c10.7,7.5,21.9,14.3,33.4,20.5
	c25.7,13.8,53,24.7,80.8,33.1c2.5,0.7,4.9,1.5,7.4,2.2c2.6,0.7,5.2,1.5,7.8,2.2c29.2,8,58.6,13.5,86.7,17.2
	c10.9,1.4,21.6,2.6,32,3.6c5.7,0.5,11.3,1,16.9,1.4c5.5,0.4,11,0.7,16.3,1c15.4,0.8,29.8,1.1,42.9,1.2h6.6h0.2
	c6.4,0,12.5-0.1,18.1-0.3l0.5,0c10.4-0.3,19.4-0.7,26.6-1.1c3.6-0.2,6.8-0.4,9.4-0.6c2.7-0.2,4.9-0.4,6.5-0.5
	c1.6-0.1,2.8-0.2,3.4-0.3l9.7-6.4l13.4-8.9c2.2-0.2,3.7-0.3,4.4-0.4c-1.4,0.1-2.8,0.2-4.2,0.2l0.1-0.1l5.3-3.5c-0.2,0-0.6,0.1-1,0.1
	c-3,0.3-10.6,0.9-21.7,1.6c-6.7,0.4-14.7,0.7-23.8,0.9c-0.1,0-0.2,0-0.3,0c-1.4,0-2.9,0.1-4.4,0.1c-19.6-1.5-40.1-4.4-60.9-8.2
	c-0.4-0.1-0.8-0.1-1.2-0.2c-40.1-7.3-81.1-18-117.8-29.1c-9.2-2.8-18.1-5.6-26.7-8.4c-25.7-8.4-48.3-16.7-65.6-23.6
	c-23-9.2-36.5-16-35.4-17.6c0.1-0.2,0.2-0.7,0.2-1.4c0-0.1,0-0.2,0-0.3c0-0.7,0-1.8-0.1-3c0-0.2,0-0.3,0-0.5
	c-0.2-3.4-0.6-8.4-1-14.7c0-0.1,0-0.1,0-0.1c-0.7-9.5-1.4-21.9-1.7-36.6c-0.3-16-0.1-34.6,1.4-54.5l0,0c0-0.2,0-0.3,0-0.5l0,0
	c0.5-7,1.2-14.1,2.1-21.3v0c0,0,0,0,0,0c0.8-6.6,1.8-13.3,2.9-20.1c0.2-1.2,0.4-2.5,0.6-3.7c1.2-7,2.6-14.1,4.2-21.3
	c10.2-44.7,29.2-90.2,63.1-126.8c4.4-4.7,9.1-9.2,14-13.5c2.1-1.9,4.3-3.7,6.5-5.5c3-2.4,6-4.8,9.1-7.1c1.9-1.4,3.6-3,5.6-4.3
	c8-4,16.4-7.6,25.3-10.8c0.1,0,0.2-0.1,0.3-0.1c2.6-0.9,5.3-1.9,8-2.7c5.5-1.8,11.1-3.4,17-4.9c1.9-0.5,3.8-1,5.8-1.4
	c10.8-2.5,22.2-4.6,34.3-6c3.2-0.4,6.5-0.7,9.8-1.1c1.8-0.2,3.6-0.3,5.5-0.5c4.5-0.3,9.1-0.6,13.7-0.8c0.8,0,1.5-0.1,2.3-0.1
	c5.4-0.2,11-0.3,16.6-0.3c5.6,0,11.4,0.1,17.3,0.3c88.7,3.1,152.4,29.7,197.9,68.2c4.6,3.9,9,8,13.2,12.1c1.2,1.2,2.4,2.3,3.6,3.5
	c3.6,3.6,7,7.3,10.3,11c1.3,1.5,2.6,3,3.9,4.6c2.6,3.1,5.1,6.2,7.5,9.4c1.7,2.2,3.3,4.4,4.9,6.6c1.4,2,2.8,4,4.2,6
	c3.4,4.9,6.6,9.9,9.6,15c0.5,0.9,1.1,1.8,1.7,2.8c2,3.4,3.9,6.9,5.8,10.3c0,0,0,0,0,0c8,15.1,14.9,30.6,20.5,46.2
	c1.4,4,2.7,7.9,4,11.9c0.6,1.9,1.2,3.7,1.7,5.6c1.7,5.5,3.2,11.1,4.7,16.6v0c6.7,25.8,10.8,51.1,13.1,74.6c0,0,0,0,0,0
	c1.6,15.7,2.4,30.6,2.7,44.1c0.8,39.5-2.5,67.6-3.1,72.7l0,0c1.1-0.4,2.1-0.9,3.1-1.4c0.7-0.3,1.4-0.6,2.1-1c1.1-0.5,2.1-1,3.1-1.5
	c2.6-1.2,5-2.4,7.2-3.6c2.2-1.2,4.3-2.3,6.2-3.4c1.9-1.1,3.6-2.2,5.2-3.2l6.4-4.2c10.4-4.8,18.2-9.2,23.8-13.1
	c7-4.9,12.9-10.6,13.5-18.8c0.1-0.9,0.1-1.9,0.2-2.8c0.6-8,1.3-16.2,2-24.3c0,0,0,0,0,0c0.2-1.9,0.3-3.9,0.5-5.8
	C1856.5,389,1856.9,367.1,1855.5,345.3z"/>
<g id="professionals" class="st1">
	<path class="st2" d="M33.4,478.4h8.2c9.4,0,14.6,3.9,15.4,11.5c0.9,9.2-5.1,15-15.5,15h-8.2L33.4,478.4 M24.1,470.2L24,548h9.3
		l0.1-34.8h11c14.5,0,23.6-9.9,22.1-24.1c-1-9.5-6.9-16.3-15.7-18.2c-2.2-0.4-5.2-0.7-8.9-0.7H24.1"/>
	<path class="st2" d="M94.5,478.4h7.8c9.7,0,15.2,4.2,16,12.2c1.1,10.2-5.5,16.8-16.7,16.8h-7.1L94.5,478.4 M85.1,470.2L85.1,548
		h9.3l0.1-40.2l26.7,40.2h11.6l-23.5-34.4c13.2-2.6,19.8-11.1,18.4-24c-1-9.5-6.9-16.7-15.5-18.6c-2.5-0.4-5.7-0.8-9.8-0.8H85.1"/>
	<path class="st2" d="M155.5,512.5c-0.1-1.1-0.1-2.2-0.1-3.3c0-18.1,13.8-31.8,31.5-31.8c16.4,0,29.6,11.9,31.3,28.1
		c2,19.4-12.2,35.5-31.4,35.5C170.3,541,157.2,529.1,155.5,512.5 M146,509.2c-0.1,1.4,0.1,2.8,0.2,4.2c2.2,21.2,18.9,36.2,40.6,36.2
		c24.8,0,43.3-20.3,40.8-44.9c-2.2-21.1-19.3-36.1-40.6-36.1C163.8,468.6,146.1,486.1,146,509.2"/>
	<polygon class="st2" points="249.1,470.2 249,548 258.3,548 258.3,509.5 281.8,509.5 281.8,501.4 258.4,501.4 258.3,478.4 
		285.5,478.4 285.5,470.2 	"/>
	<polygon class="st2" points="304.1,470.2 304,548 345.2,548 345.3,539.8 313.3,539.8 313.4,509.5 339.5,509.5 339.6,501.4 
		313.5,501.4 313.5,478.4 343.8,478.4 343.9,470.2 	"/>
	<path class="st2" d="M364.2,492.3c0.5,4.7,2.7,8.8,6,12c3.3,2.9,4.1,3.3,14.1,7.4c12.6,5.2,15.8,7.8,16.4,13.6
		c0.8,8.3-6.2,15.5-15.2,15.5c-8,0-14-4.1-18.5-12.4l-7.6,5c5.5,10.8,13.7,16.1,25.5,16.1c15.8,0,27-11.4,25.5-25.9
		c-0.6-5.4-3.1-10-7.3-13c-3.3-2.5-7.3-4.4-13.8-7.2c-8.8-3.5-10.2-4.3-12.4-6.6c-1.6-1.6-2.7-3.8-2.9-6.2
		c-0.7-7.2,5.1-13.3,12.9-13.3c6.6,0,11.5,3.2,14.1,9.3l8.1-4.1c-4.9-8.9-12.2-13.4-22.1-13.4C372.9,469.1,362.9,479.3,364.2,492.3"
		/>
	<path class="st2" d="M429.9,492.3c0.5,4.7,2.7,8.8,6,12c3.3,2.9,4.1,3.3,14.1,7.4c12.6,5.2,15.8,7.8,16.4,13.6
		c0.8,8.3-6.2,15.5-15.2,15.5c-8,0-14-4.1-18.5-12.4l-7.6,5c5.5,10.8,13.7,16.1,25.5,16.1c15.9,0,27-11.4,25.5-25.9
		c-0.6-5.4-3.1-10-7.3-13c-3.3-2.5-7.3-4.4-13.8-7.2c-8.8-3.5-10.2-4.3-12.4-6.6c-1.6-1.6-2.7-3.8-2.9-6.2
		c-0.7-7.2,5.1-13.3,12.9-13.3c6.6,0,11.4,3.2,14.1,9.3l8.1-4.1c-4.9-8.9-12.2-13.4-22.1-13.4C438.6,469.1,428.5,479.3,429.9,492.3"
		/>
	<polygon class="st2" points="497.5,470.2 497.4,548 506.7,548 506.9,470.2 	"/>
	<path class="st2" d="M537.5,512.5c-0.1-1.1-0.1-2.2-0.1-3.3c0-18.1,13.7-31.8,31.5-31.8c16.4,0,29.6,11.9,31.3,28.1
		c2,19.4-12.2,35.5-31.4,35.5C552.3,541,539.2,529.1,537.5,512.5 M528,509.2c-0.1,1.4,0.1,2.8,0.2,4.2c2.2,21.2,18.9,36.2,40.6,36.2
		c24.8,0,43.3-20.3,40.8-44.9c-2.2-21.1-19.3-36.1-40.6-36.1C545.8,468.6,528.1,486.1,528,509.2"/>
	<path class="st2" d="M689.5,470.2l-0.1,55.2c0.1,0.8,0.1,1.6,0.2,2.7c0.3,2.5,0.6,4.6,1.2,7.5c-1.4-3.3-2.3-4.9-5-8l-47.4-57.4H631
		L631,548h9.3l0.1-55.7c0.1-0.4,0-0.9-0.1-1.6c-0.3-2.7-0.6-4.8-1.2-7.7c1.4,3.2,2.2,4.4,4.9,7.6l47.8,57.5h7l0-77.7H689.5"/>
	<path class="st2" d="M747.7,488.1c1.3-3.1,1.8-4.8,2.2-8.1c0.5,3.2,1.1,4.9,2.2,8.1l11.8,30.1h-28.1L747.7,488.1 M745.8,470.2
		L713.4,548h9.9l9-21.6h35l8.9,21.6h10L754,470.2H745.8"/>
	<polygon class="st2" points="801.2,470.2 801.1,548 835.5,548 835.5,539.8 810.4,539.8 810.5,470.2 	"/>
	<path class="st2" d="M851.5,492.3c0.5,4.7,2.7,8.8,6,12c3.3,2.9,4.1,3.3,14.1,7.4c12.6,5.2,15.8,7.8,16.4,13.6
		c0.9,8.3-6.2,15.5-15.2,15.5c-8,0-14-4.1-18.5-12.4l-7.6,5c5.5,10.8,13.7,16.1,25.5,16.1c15.9,0,26.9-11.4,25.5-25.9
		c-0.6-5.4-3.1-10-7.3-13c-3.3-2.5-7.3-4.4-13.8-7.2c-8.8-3.5-10.3-4.3-12.4-6.6c-1.6-1.6-2.7-3.8-2.9-6.2
		c-0.7-7.2,5.1-13.3,12.9-13.3c6.6,0,11.5,3.2,14.1,9.3l8.1-4.1c-4.9-8.9-12.2-13.4-22.1-13.4C860.2,469.1,850.1,479.3,851.5,492.3"
		/>
</g>
<g id="headwear_00000096057208752882974390000007754097125126522556_">
	<polygon class="st3" points="1017.7,226.8 1017.7,413 1119.9,413 1163.2,283.6 1163.8,283.6 1153.8,413 1250.6,413 1344.5,226.8 
		1253.7,226.8 1205,354 1204.5,354 1217,226.8 1135.5,226.8 1091.5,354 1091,354 1100.1,226.8 	"/>
	<path class="st3" d="M968.2,361.4c13.1-34.7,19.8-58.2,19.8-81.6c0-43-26.9-53-55.3-53H791.9L741,413h153.1
		C920.8,413,954.2,399.7,968.2,361.4z M897.5,333.2c-3.9,16.2-14.9,30.3-33.1,30.3h-29.7l20.6-75.1h26.1c15.9,0,21.4,5.2,21.4,17.7
		C902.8,310.5,901.5,317.5,897.5,333.2z"/>
	<path class="st3" d="M504.6,226.8H320.4c0,0-4.1,0-5,3.9l-46,178.4c0,0-1,3.9,3,3.9h183.9c0,0,4,0,5-3.9l10.8-41.8c0,0,1-3.9-3-3.9
		H366.1c0,0-4,0-3-3.9l2.4-8.9c0,0,1-3.9,5.1-3.9h103.1c0,0,4,0,5-3.9l8.4-32.4c0,0,1-3.9-3-3.9H380.9c0,0-4,0-3-3.9l3.3-13.1
		c0,0,1-3.9,5-3.9h103.1c0,0,4,0,5-3.9l13.4-51.2C507.6,230.7,508.6,226.8,504.6,226.8z"/>
	<polygon class="st3" points="1535.5,285.7 1550.8,226.8 1358.6,226.8 1310.6,413 1502.6,413 1515.3,363.4 1404.2,363.4 
		1408.7,346.8 1519.8,346.8 1530.2,306.6 1419.1,306.6 1424.3,285.7 	"/>
	<path class="st3" d="M645.9,413h72.3c0,0,4,0,4-4V230.8c0,0,0-4-4-4H586.7c0,0-4,0-6.1,3.5L472.9,409.6c0,0-2.1,3.5,2,3.5H556
		c0,0,4,0,6.1-3.5l12-20.2c0,0,2.1-3.5,6.1-3.5h57.6c0,0,4,0,4,4V409C641.9,409,641.9,413,645.9,413z M600.2,341l41.2-67h0.5v67
		H600.2z"/>
	<path class="st3" d="M149.6,226.8H78.4c0,0-4,0-5.1,3.9L25.5,409.1c0,0-1,3.9,3,3.9h71.2c0,0,4,0,5.1-3.9l15.7-58.7
		c0,0,1-3.9,5.1-3.9h40.7c0,0,4,0,3,3.9l-15.7,58.7c0,0-1,3.9,3,3.9h71.2c0,0,4,0,5.1-3.9l47.7-178.5c0,0,1-3.9-3-3.9h-71.2
		c0,0-4.1,0-5.1,3.9l-15.9,59.8c0,0-1,3.9-5.1,3.9h-40.7c0,0-4,0-3-3.9l15.9-59.8C152.6,230.7,153.6,226.8,149.6,226.8z"/>
	<path class="st3" d="M1983.3,226.8h-156.2L1776.2,413h79.5l16.7-64.7l38.6,64.7h93.1l-54-76.4h14.1c33.6,0,59.7-21.4,59.7-68.3
		v-0.3C2024,242.4,2016.7,227.4,1983.3,226.8z M1917.6,317.5h-35.8l10-38.6h34.7c11,0,17.2,4.2,17.2,13
		C1943.7,304,1935.8,317.5,1917.6,317.5z"/>
	<path class="st3" d="M1513,413h89.2l16.2-27.1h65.7V413h80.3V226.8h-139.5L1513,413z M1683.6,274h0.5v67h-41.8L1683.6,274z"/>
</g>
<g id="professionnels">
	<path class="st3" d="M37.5,93.4c7.5,0,13.7,0.9,18.8,5.2c5.5,4.7,6.8,11.3,6.8,16c0,10.5-6.6,20.9-23.6,20.9h-7.3v32.4H24V93.4
		H37.5z M32.3,127.7h6.8c9.8,0,15.7-4.9,15.7-13.5c0-11.8-11.1-13-16.4-13h-6.1V127.7z"/>
	<path class="st3" d="M95.2,93.4c5,0,12.5,0.3,18.1,4.1c4.4,2.9,8.2,8.6,8.2,16.5c0,11.4-7.5,19.8-18.8,20.5l23.7,33.3h-10.1
		l-22.7-32.6h-2.1v32.6h-8.3V93.4H95.2z M91.6,127.9h5.2c10.3,0,16.4-4.9,16.4-13.6c0-4.1-1.2-8.3-5.9-10.9
		c-3.3-1.9-7.1-2.1-10.7-2.1h-5V127.9z"/>
	<path class="st3" d="M143.7,130.7c0-22.2,17.3-38.5,38.8-38.5s38.8,16.3,38.8,38.5c0,22.1-17.2,38.5-38.8,38.5
		S143.7,152.8,143.7,130.7z M152.2,130.7c0,17.1,13.5,30.7,30.3,30.7s30.3-13.6,30.3-30.7S199.2,100,182.5,100
		S152.2,113.6,152.2,130.7z"/>
	<path class="st3" d="M278.7,101.2H253v22h24.8v7.8H253v36.9h-8.3V93.4h34V101.2z"/>
	<path class="st3" d="M340.2,101.2h-30.4v22.1h29.5v7.8h-29.5v28.9h30.4v7.8h-38.6V93.4h38.6V101.2z"/>
	<path class="st3" d="M397.1,108.2c-1-2-2.7-4.2-4.4-5.6c-1.5-1.1-4.1-2.6-8.4-2.6c-7.4,0-12.5,4.6-12.5,11.5c0,2.9,0.8,4.6,2.8,6.5
		c2.2,2.2,5,3.5,7.8,4.7l7.1,3.1c4.4,1.9,8.4,3.9,11.5,7c3.8,3.8,5.4,8.2,5.4,13.5c0,13.7-10.2,22.9-23.6,22.9c-4.9,0-11.1-1-16.2-6
		c-3.7-3.6-5.9-8.7-6.9-13.2l8-2.2c0.6,3.9,2.3,7.3,4.5,9.5c3.2,3.2,6.9,4.1,10.7,4.1c10.2,0,15-7.3,15-14.7c0-3.4-1-6.3-3.7-8.7
		c-2.1-2-5-3.4-8.9-5.1l-6.7-3.1c-2.9-1.3-6.6-2.9-9.9-6.1c-3.2-3.1-5.1-6.6-5.1-12.2c0-11.5,8.8-19.2,20.9-19.2
		c4.6,0,8.3,0.9,11.9,3.4c3,2,5.6,5,7.3,8.3L397.1,108.2z"/>
	<path class="st3" d="M461,108.2c-1-2-2.7-4.2-4.4-5.6c-1.5-1.1-4.1-2.6-8.4-2.6c-7.4,0-12.5,4.6-12.5,11.5c0,2.9,0.8,4.6,2.8,6.5
		c2.2,2.2,5,3.5,7.8,4.7l7.1,3.1c4.4,1.9,8.4,3.9,11.5,7c3.8,3.8,5.4,8.2,5.4,13.5c0,13.7-10.2,22.9-23.6,22.9c-4.9,0-11.1-1-16.2-6
		c-3.7-3.6-5.9-8.7-6.9-13.2l8-2.2c0.6,3.9,2.3,7.3,4.5,9.5c3.2,3.2,6.9,4.1,10.7,4.1c10.2,0,15-7.3,15-14.7c0-3.4-1-6.3-3.7-8.7
		c-2.1-2-5-3.4-8.9-5.1l-6.7-3.1c-2.9-1.3-6.6-2.9-9.9-6.1c-3.2-3.1-5.1-6.6-5.1-12.2c0-11.5,8.8-19.2,20.9-19.2
		c4.6,0,8.3,0.9,11.9,3.4c3,2,5.6,5,7.3,8.3L461,108.2z"/>
	<path class="st3" d="M502.2,93.4v74.5h-8.3V93.4H502.2z"/>
	<path class="st3" d="M525.7,130.7c0-22.2,17.3-38.5,38.8-38.5s38.8,16.3,38.8,38.5c0,22.1-17.2,38.5-38.8,38.5
		S525.7,152.8,525.7,130.7z M534.2,130.7c0,17.1,13.5,30.7,30.3,30.7s30.3-13.6,30.3-30.7S581.2,100,564.5,100
		S534.2,113.6,534.2,130.7z"/>
	<path class="st3" d="M626.8,167.9V90.3l58.1,60.9V93.4h8.3v77.8l-58.1-60.9v57.5H626.8z"/>
	<path class="st3" d="M720.7,167.9V90.3l58.1,60.9V93.4h8.3v77.8L729,110.4v57.5H720.7z"/>
	<path class="st3" d="M853.3,101.2h-30.4v22.1h29.5v7.8h-29.5v28.9h30.4v7.8h-38.6V93.4h38.6V101.2z"/>
	<path class="st3" d="M885.1,93.4v66.7h20.5v7.8h-28.8V93.4H885.1z"/>
	<path class="st3" d="M958.4,108.2c-1-2-2.7-4.2-4.4-5.6c-1.5-1.1-4.1-2.6-8.4-2.6c-7.4,0-12.5,4.6-12.5,11.5c0,2.9,0.8,4.6,2.8,6.5
		c2.2,2.2,5,3.5,7.8,4.7l7.1,3.1c4.4,1.9,8.4,3.9,11.5,7c3.8,3.8,5.4,8.2,5.4,13.5c0,13.7-10.2,22.9-23.6,22.9c-4.9,0-11.1-1-16.2-6
		c-3.7-3.6-5.9-8.7-6.9-13.2l8-2.2c0.6,3.9,2.3,7.3,4.5,9.5c3.2,3.2,6.9,4.1,10.7,4.1c10.2,0,15-7.3,15-14.7c0-3.4-1-6.3-3.7-8.7
		c-2.1-2-5-3.4-8.9-5.1l-6.7-3.1c-2.9-1.3-6.6-2.9-9.9-6.1c-3.2-3.1-5.1-6.6-5.1-12.2c0-11.5,8.8-19.2,20.9-19.2
		c4.6,0,8.3,0.9,11.9,3.4c3,2,5.6,5,7.3,8.3L958.4,108.2z"/>
</g>
</svg>
